<svg xmlns="http://www.w3.org/2000/svg" xmlns:xlink="http://www.w3.org/1999/xlink" viewBox="0 0 222.77 209.09"><defs><style>.cls-1,.cls-12,.cls-16,.cls-7{fill:none;}.cls-2{fill:#315996;}.cls-3{clip-path:url(#clip-path);}.cls-15,.cls-4{fill:#172e6a;}.cls-4{opacity:0.2;}.cls-14,.cls-5{fill:#6dc6ff;}.cls-6{fill:#1e6d46;}.cls-7{stroke:#c9d073;stroke-width:2px;}.cls-16,.cls-7{stroke-miterlimit:10;}.cls-8{fill:#ffecc4;}.cls-9{fill:#ff3a44;}.cls-10{opacity:0.3;}.cls-11{fill:#fff;}.cls-12{stroke:red;stroke-linejoin:round;stroke-width:7px;}.cls-13{clip-path:url(#clip-path-2);}.cls-14{opacity:0.1;}.cls-16{stroke:#172e6a;stroke-linecap:round;stroke-width:4px;}.cls-17{clip-path:url(#clip-path-4);}.cls-18{clip-path:url(#clip-path-5);}.cls-19{clip-path:url(#clip-path-7);}</style><clipPath id="clip-path"><path class="cls-1" d="M121.83,122l34.52,12.43-3.22-43.27L184,73.67S268.8,187,136.23,197.13"/></clipPath><clipPath id="clip-path-2"><path class="cls-1" d="M172.74,114.7c-9-15-21.11-30.91-29.11-41.42-1.45-1.91-2.79-3.67-4-5.24-12.7-16.87-23.74-13.87-39-9.72-3.18.86-6.47,1.76-10.1,2.58C81.25,63,73.21,79.34,66.67,109.45c-5,1.4-9,5.53-10.74,11.24-1.56,5,.6,10,6.1,14.12-2.09,13.58-3.09,23.8-3.1,23.91l-.07.71.5.52c24,25.18,46.68,37.88,67.65,37.88a50.89,50.89,0,0,0,9.32-.85c25.84-4.83,42.42-29.53,48.15-43.37C187.66,145.91,183.82,133.18,172.74,114.7Z"/></clipPath><clipPath id="clip-path-4"><path class="cls-1" d="M72.18,115.12,68.8,131.75a4.09,4.09,0,0,1-6.32,2.56l-.07,0c-3.92-2.7-8.3-7.21-6.44-13.24,2-6.58,6.59-9.8,10.81-10.64a9,9,0,0,1,1-.16A4.08,4.08,0,0,1,72.18,115.12Z"/></clipPath><clipPath id="clip-path-5"><path class="cls-1" d="M172.73,114.7c-9-15-21.1-30.91-29.1-41.42-1.46-1.91-2.79-3.67-4-5.24-12.7-16.87-23.73-13.87-39-9.72-3.19.86-6.48,1.76-10.1,2.58C81.24,63,73.21,79.34,66.66,109.45c-5,1.4-9,5.53-10.74,11.24-1.56,5,.61,10,6.1,14.12-2.08,13.58-3.09,23.8-3.1,23.91l-.07.71.5.52c24,25.18,46.69,37.88,67.66,37.88a50.78,50.78,0,0,0,9.31-.85c25.85-4.83,42.43-29.53,48.15-43.37C187.65,145.91,183.82,133.18,172.73,114.7Z"/></clipPath><clipPath id="clip-path-7"><path class="cls-1" d="M127.63,51.37S139.73,40,145.12,50c8.56,15.9-4.14,20.25-4.14,20.25s6.63,14,12.15,20.92,13.81,10.13,16.57-5.06,12.43,17.49,18-27.16-1.84-31.3-14.72-9.66c0,0,7.82-37.75-3.23-37.75s-9.85,27.87-14,27.87-4-18.66-23.75-9.92S114.28,62,127.63,51.37Z"/></clipPath></defs><title>Fichier 8logo</title><g id="Calque_2" data-name="Calque 2"><g id="Calque_3" data-name="Calque 3"><path class="cls-2" d="M121.83,122l34.52,12.43-3.22-43.27L184,73.67S268.8,187,136.23,197.13"/><g class="cls-3"><path class="cls-4" d="M136.69,197.13S213.56,176,180.88,83l15.65-39.59,26.24,106.79-18,42.35L151,209.09Z"/></g><path class="cls-5" d="M127.63,51.37S139.73,40,145.12,50c8.56,15.9-4.14,20.25-4.14,20.25s6.63,14,12.15,20.92,13.81,10.13,16.57-5.06,12.43,17.49,18-27.16-1.84-31.3-14.72-9.66c0,0,7.82-37.75-3.23-37.75s-9.85,27.87-14,27.87-4-18.66-23.75-9.92S114.28,62,127.63,51.37Z"/><path class="cls-6" d="M80.06,178.31s-2.19-9.68,2.61-16.38,5.57-11.56,4-15.23-4-5.62-3.79-10.25,6.6-12.94,2.85-17.89-8.37-9.11-9-20.72S71.11,92,68.59,86.29s-4.11-9.37-9.23-12.36L54.51,86.84s-.39-5.35,2.12-13.34-6.87-7.63-12.14-9.71-7.78-7.77-13-12-10.26-1.94-15.54,1.88L19,46.05s-13.79-7.18-16.31-7S-1,48.46,1,50s5,5.77,1.18,10.14,4,13.71,5.17,16.38-2.21,8-.05,14,5.91,7.78,5.89,11.82-2.26,8.35,1.35,11.1,10.38,5.07,11,9.21-4.48,8.62-.8,14.8,12.12,7.84,14.67,11.36S34,157.28,45.2,160.93,70.64,167.16,80.06,178.31Z"/><path class="cls-7" d="M80.06,178.31S62.59,121.05,2.71,39.09"/><line class="cls-7" x1="15.84" y1="57.63" x2="0.97" y2="50.01"/><line class="cls-7" x1="24.74" y1="70.92" x2="1.13" y2="63.3"/><line class="cls-7" x1="40.21" y1="95.68" x2="6.6" y2="84.55"/><line class="cls-7" x1="54.56" y1="121.13" x2="12.54" y2="107.62"/><line class="cls-7" x1="65.82" y1="143.58" x2="23.33" y2="132.5"/><line class="cls-7" x1="74.68" y1="163.74" x2="39.32" y2="153.38"/><line class="cls-7" x1="86.65" y1="146.7" x2="75.73" y2="166.36"/><line class="cls-7" x1="86.77" y1="120.99" x2="68.89" y2="150.23"/><line class="cls-7" x1="77.08" y1="101.55" x2="60.13" y2="131.9"/><line class="cls-7" x1="63.94" y1="77.74" x2="50.24" y2="113.16"/><line class="cls-7" x1="41.84" y1="62.31" x2="35.54" y2="87.95"/><line class="cls-7" x1="28.1" y1="49.87" x2="21.17" y2="65.52"/><path class="cls-8" d="M90.21,117.24A57.12,57.12,0,0,1,83.4,115c-2.22-.88-4.41-1.87-6.55-3a72.85,72.85,0,0,1-12.13-7.77A61.82,61.82,0,0,1,54.49,94a54.31,54.31,0,0,1-4.1-6c-.64-1-1.18-2.12-1.75-3.19-.29-.53-.52-1.09-.79-1.64s-.53-1.1-.75-1.65c-.92-2.21-1.86-4.41-2.74-6.64L43,71.59l-1.28-3.35c-1.67-4.48-3.29-9-4.77-13.53S34.07,45.61,32.75,41s-2.56-9.21-3.62-13.86q4.35,13.64,9.22,27.08L40.82,61c.85,2.22,1.68,4.46,2.56,6.67,1.72,4.44,3.54,8.84,5.41,13.21a59.47,59.47,0,0,0,16.84,22.32,78.35,78.35,0,0,0,11.65,8.09c2,1.19,4.17,2.27,6.32,3.28q1.62.77,3.27,1.44C88,116.42,89.08,116.86,90.21,117.24Z"/><path class="cls-8" d="M59.08,125.39s.55-14.72,10.92-18.06A24,24,0,0,1,59.08,125.39Z"/><path class="cls-8" d="M44.73,118.07s11.3,1,19.35-15.27C64.08,102.8,58.25,101.68,44.73,118.07Z"/><path class="cls-8" d="M58.37,97.31S50.2,110,36.65,108.4C36.65,108.4,45.76,99.1,58.37,97.31Z"/><path class="cls-8" d="M53.35,91s-12.5,11.08-23.2,6.7C30.15,97.73,39,89.85,53.35,91Z"/><path class="cls-8" d="M49,83.43s-9.39,6.87-20.11,2.44C28.84,85.87,38.56,80.86,49,83.43Z"/><path class="cls-8" d="M24.63,74.61s10.27,8,21,1C45.6,75.6,32.29,71.42,24.63,74.61Z"/><path class="cls-8" d="M26.15,64.12A16.84,16.84,0,0,0,42.78,68.5S31.39,62.59,26.15,64.12Z"/><path class="cls-8" d="M23.76,55.93S30.58,63,39.83,60.6C39.83,60.6,31.2,55,23.76,55.93Z"/><path class="cls-8" d="M25.82,47.36s5.34,7.58,11.36,5.71C37.18,53.07,31.29,47.67,25.82,47.36Z"/><path class="cls-8" d="M23.72,37.28s3.42,7.67,11.06,8.6C34.78,45.88,29.59,38.7,23.72,37.28Z"/><path class="cls-8" d="M22.14,29.18a18.41,18.41,0,0,0,10.24,9.11S28.81,30.78,22.14,29.18Z"/><path class="cls-8" d="M32.38,38.29s-.15-10.55,4.26-13.51C36.64,24.78,35,36,32.38,38.29Z"/><path class="cls-8" d="M35.37,47.71s.23-9.58,7.56-13.52C42.93,34.19,39.72,43.28,35.37,47.71Z"/><path class="cls-8" d="M37.89,55.13s-.54-10.3,7.27-12.74A28,28,0,0,1,37.89,55.13Z"/><path class="cls-8" d="M39.83,60.6S39.18,53.72,47.48,49C47.48,49,46.75,55.16,39.83,60.6Z"/><path class="cls-8" d="M42.78,68.5s1.07-10.92,9.79-13.69C52.57,54.81,49.54,63.36,42.78,68.5Z"/><path class="cls-8" d="M45.6,75.6s-.07-11.81,9.57-18A32.48,32.48,0,0,1,45.6,75.6Z"/><path class="cls-8" d="M49,83.43s3.68-16.7,12.27-17.65C61.22,65.78,61,74.85,49,83.43Z"/><path class="cls-8" d="M53.35,91s4.45-18.19,13.29-22.1C66.64,68.93,65.89,81.22,53.35,91Z"/><path class="cls-8" d="M58.37,97.31S62.5,79.15,72,75.17C72,75.17,71.16,87.22,58.37,97.31Z"/><path class="cls-8" d="M64.08,102.8s2.76-14.16,12.4-21.24C76.48,81.56,80.44,89.5,64.08,102.8Z"/><path class="cls-8" d="M70,107.33S71.47,97,84.07,89.26C84.07,89.26,87,95.94,70,107.33Z"/><path class="cls-9" d="M76.94,136.41s29.52-9.65,44.79-32c0,0-15.72-6.51-35.7,5.82,0,0,22.85-18,27.27-22.73,0,0-18.54-9.48-38.91,7.17,0,0,23.93-22,28.64-27.86,0,0-13.24-3.93-27.4,8.21a128,128,0,0,0,11.8-16.16c4.51-7.75,8.76-14.61,8.76-14.61s-4.74-1.7-25.34,15.46c0,0,19.52-15.27,22-38.25,0,0-14.42,3-25.5,23.25,0,0,2-18.31-.46-28.88A129.21,129.21,0,0,0,62.32,0s-12.59,22.79-1,50.68A86.48,86.48,0,0,0,46.13,32.44S39.63,44.17,61.6,67.75c0,0-15.56-12.3-19.29-13.18,0,0,6.74,17.66,22.86,35.8,0,0-15.14-11-25-10.43,0,0,8.83,18.58,24.72,27.27,0,0-22-10.88-33.68-.52,0,0,8.86,14.22,30,15.6,0,0-20.14-1.83-38.12,14.48C23.06,136.77,39.86,147.37,76.94,136.41Z"/><g class="cls-10"><path class="cls-11" d="M62.32,0c.74,11.49,1.48,22.94,2.47,34.34s2.26,22.73,4.63,33.89a292.36,292.36,0,0,1,4.09,34.39c.77,11.49,1.13,23,.86,34.52l-4-34.23-1-8.53c-.37-2.84-.72-5.68-1.14-8.5-.77-5.67-1.61-11.32-2.73-16.88l-.77-4.25c-.26-1.43-.54-2.86-.73-4.3l-.63-4.31-.5-4.32c-.54-5.76-1-11.51-1.18-17.28A301.46,301.46,0,0,1,62.32,0Z"/><path class="cls-11" d="M46.13,32.44C48,34.72,49.64,37,51.26,39.32L56,46.19c1.57,2.29,3.17,4.52,4.78,6.78s3.34,4.44,5.06,6.86a25.26,25.26,0,0,1-7.39-4.75,39.19,39.19,0,0,1-5.74-6.61,44.3,44.3,0,0,1-4.2-7.63A31.47,31.47,0,0,1,46.13,32.44Z"/><path class="cls-11" d="M42.31,54.57a68.91,68.91,0,0,1,8,6.27q3.76,3.38,7.21,7t6.58,7.63a67.14,67.14,0,0,1,5.75,8.42,67.2,67.2,0,0,1-8-6.26c-2.52-2.25-4.91-4.6-7.21-7.05s-4.49-5-6.58-7.64A67.14,67.14,0,0,1,42.31,54.57Z"/><path class="cls-11" d="M40.19,79.94a61.4,61.4,0,0,1,8.76,4q4.2,2.27,8.14,4.9c2.64,1.75,5.2,3.61,7.67,5.61a60.26,60.26,0,0,1,7,6.56A58.86,58.86,0,0,1,63,97q-4.2-2.26-8.14-4.9T47.22,86.5A59.41,59.41,0,0,1,40.19,79.94Z"/><path class="cls-11" d="M31.23,106.69a76.65,76.65,0,0,1,10.75.56q5.31.63,10.53,1.68c3.48.7,6.93,1.53,10.35,2.52A74.78,74.78,0,0,1,73,115.09a73.74,73.74,0,0,1-10.75-.56q-5.31-.61-10.52-1.68c-3.48-.7-6.94-1.53-10.36-2.52A76.67,76.67,0,0,1,31.23,106.69Z"/><path class="cls-11" d="M23.06,136.77a114.3,114.3,0,0,1,12.28-4.57q6.22-1.95,12.55-3.46t12.75-2.63a110.14,110.14,0,0,1,13-1.52,110.19,110.19,0,0,1-12.28,4.57q-6.23,2-12.55,3.46t-12.76,2.63A110,110,0,0,1,23.06,136.77Z"/><path class="cls-11" d="M121.73,104.4a116.93,116.93,0,0,1-11.31,7q-5.81,3.21-11.8,6t-12.16,5.25a112.93,112.93,0,0,1-12.65,4.2,115,115,0,0,1,11.31-7q5.8-3.21,11.8-6c4-1.87,8-3.63,12.17-5.24A114.18,114.18,0,0,1,121.73,104.4Z"/><path class="cls-11" d="M113.3,87.49a84.88,84.88,0,0,1-9.61,6.1c-3.3,1.83-6.66,3.51-10.08,5.07s-6.89,3-10.43,4.28a83.14,83.14,0,0,1-10.91,3.24,82.53,82.53,0,0,1,9.6-6.1Q86.82,97.34,92,95t10.44-4.28A84.26,84.26,0,0,1,113.3,87.49Z"/><path class="cls-11" d="M103,66.8a63.63,63.63,0,0,1-7.29,6.68q-3.83,3.06-7.91,5.75t-8.38,5a63.21,63.21,0,0,1-9,4.07,61.93,61.93,0,0,1,7.28-6.69q3.82-3.06,7.91-5.74t8.39-5A62.71,62.71,0,0,1,103,66.8Z"/><path class="cls-11" d="M96.19,44.24a62.66,62.66,0,0,1-6,7.84c-2.15,2.45-4.41,4.78-6.76,7s-4.81,4.37-7.37,6.39a62.77,62.77,0,0,1-8.14,5.56,62.82,62.82,0,0,1,6-7.84c2.15-2.45,4.42-4.78,6.77-7s4.81-4.36,7.37-6.39A63.46,63.46,0,0,1,96.19,44.24Z"/><path class="cls-11" d="M92.82,21.45a81.75,81.75,0,0,1-5.65,9.65c-2.06,3.08-4.24,6-6.54,8.95s-4.69,5.7-7.21,8.41a79.07,79.07,0,0,1-8.11,7.71A81.08,81.08,0,0,1,71,46.51q3.09-4.6,6.54-8.94t7.22-8.42A81,81,0,0,1,92.82,21.45Z"/></g><line class="cls-12" x1="153.13" y1="132.78" x2="153.1" y2="132.94"/><g class="cls-13"><path class="cls-4" d="M168.34,182.67s19.35-39.59,0-62.09S150.17,108.94,147.19,99c-9-30.15-39.59-35.55-39.14-42.3s44.09-.9,50.39,1.8S219.63,168.27,168.34,182.67Z"/></g><g class="cls-13"><path class="cls-14" d="M94.33,61.62S73.86,96.74,77.91,105.73s-10.79,59.8-10.79,59.8l-18,5.89L31.57,139.93l13.5-55.34L80.61,58.94S95,50.34,94.33,61.62Z"/></g><line class="cls-12" x1="153.13" y1="132.78" x2="153.09" y2="132.94"/><path class="cls-1" d="M139.16,109.66a5.76,5.76,0,1,0-4.45,6.78A5.74,5.74,0,0,0,139.16,109.66Zm-28.92-3a5.71,5.71,0,1,0,6.82,4.39A5.75,5.75,0,0,0,110.24,106.66Z"/><path class="cls-1" d="M117.06,111.05a5.76,5.76,0,1,0-4.44,6.77A5.75,5.75,0,0,0,117.06,111.05Zm22.1-1.39a5.76,5.76,0,1,0-4.45,6.78A5.74,5.74,0,0,0,139.16,109.66Zm0,0a5.76,5.76,0,1,0-4.45,6.78A5.74,5.74,0,0,0,139.16,109.66Zm-28.92-3a5.71,5.71,0,1,0,6.82,4.39A5.75,5.75,0,0,0,110.24,106.66Zm28.92,3a5.76,5.76,0,1,0-4.45,6.78A5.74,5.74,0,0,0,139.16,109.66Zm-28.92-3a5.71,5.71,0,1,0,6.82,4.39A5.75,5.75,0,0,0,110.24,106.66Z"/><path class="cls-15" d="M134.71,116.44a5.7,5.7,0,1,1,4.45-6.78A5.73,5.73,0,0,1,134.71,116.44Z"/><path class="cls-15" d="M112.62,117.82a5.71,5.71,0,1,1,4.44-6.77A5.74,5.74,0,0,1,112.62,117.82Z"/><path class="cls-1" d="M103.71,125.77v.11"/><line class="cls-1" x1="124.61" y1="172.5" x2="124.61" y2="172.5"/><path class="cls-2" d="M138.81,67.66C124,47.92,112.23,56,90.21,61c-10.74,2.43-18.4,26-23.43,49.43a9,9,0,0,1,1-.16,4.08,4.08,0,0,1,4.38,4.89L68.8,131.75a4.09,4.09,0,0,1-6.32,2.56l-.07,0c-2.25,14.5-3.3,25.35-3.3,25.35,76.31,80.14,117.77,12.33,125.35-6S153.66,87.39,138.81,67.66Zm33.71,85.16c-9.63,26.57-48.71,50.24-80.87,19.91-31.14-29.38,8.34-56,8.34-56s-9.4-17-1.28-23.26c2.71-2.1,13.85,3.43,19.36,3.47,7.23,0,14.27-10.57,17.89-9.09,7.4,3,6.47,17.24,7.45,22.21C143.41,110.05,182.14,126.24,172.52,152.82Z"/><path class="cls-5" d="M143.41,110.05c-1-5,0-19.19-7.45-22.21-3.62-1.48-10.66,9.14-17.89,9.09-5.51,0-16.65-5.57-19.36-3.47-8.12,6.3,1.28,23.26,1.28,23.26s-39.48,26.63-8.34,56c32.16,30.33,71.24,6.66,80.87-19.91S143.41,110.05,143.41,110.05Zm-11.07-4.77a5.7,5.7,0,1,1-4.44,6.78A5.74,5.74,0,0,1,132.34,105.28Zm-22.1,1.38a5.71,5.71,0,1,1-4.44,6.78A5.75,5.75,0,0,1,110.24,106.66Z"/><path class="cls-2" d="M72.18,115.12,68.8,131.75a4.09,4.09,0,0,1-6.32,2.56l-.07,0c-3.92-2.7-8.3-7.21-6.44-13.24,2-6.58,6.59-9.8,10.81-10.64a9,9,0,0,1,1-.16A4.08,4.08,0,0,1,72.18,115.12Z"/><path class="cls-16" d="M121,125.53s2.74-5.91,7.85-.53c0,0,4.72-2.91,6.35,2.86"/><g class="cls-17"><path class="cls-4" d="M62.19,108.48s0,21.63-4.14,29,18-2.31,18-9.67S75.08,103,62.19,108.48Z"/></g><g class="cls-18"><path class="cls-4" d="M168.33,182.67s19.35-39.59,0-62.09S150.16,108.94,147.19,99c-9-30.15-39.59-35.55-39.14-42.3s44.09-.9,50.39,1.8S219.62,168.27,168.33,182.67Z"/></g><g class="cls-18"><path class="cls-14" d="M94.32,61.62S73.85,96.74,77.9,105.73s-10.79,59.8-10.79,59.8l-18,5.89L31.56,139.93l13.5-55.34L80.6,58.94S95,50.34,94.32,61.62Z"/></g><path class="cls-15" d="M128.72,164.57c-5.44,1.71-10.76-3.35-11.91-11.31s2.34-15.77,7.76-17.49,10.75,3.37,11.9,11.31S134.14,162.87,128.72,164.57Z"/><g class="cls-19"><path class="cls-4" d="M122.27,53.58s9.36-20.32,21.32-13,7.66,27.94-2.61,29.62S122.27,53.58,122.27,53.58Z"/><path class="cls-4" d="M169.83,11.62s-5.06,40.51-.92,39.13,4.31-1.65,5.15-5S179.5,8.86,169.83,11.62Z"/><path class="cls-4" d="M188.31,29.66S176.74,80.21,180.88,83,195.28,31.58,188.31,29.66Z"/></g></g></g></svg>